# xmcd
#
# Track frame offsets: 
#        150
#        28888
#        64800
#        87225
#        106925
#        134700
#
# Disc length: 2288 seconds
#
# Revision: 2
# Processed by: cddbd v1.5.2PL0 Copyright (c) Steve Scherf et al.
# Submitted via: ExactAudioCopy v0.99pb5
#
DISCID=5208ee06
DTITLE=Johnny Copeland - Ain't Nothin' But A Party
DYEAR=1987
DGENRE=Blues
TTITLE0=Ain't Nothin' But a Party
TTITLE1=Johnny Gone
TTITLE2=Houston
TTITLE3=Learned My Lessons
TTITLE4=Baby Please Don't Go
TTITLE5=Big Time
EXTD=
EXTT0=
EXTT1=
EXTT2=
EXTT3=
EXTT4=
EXTT5=
PLAYORDER=
